<svg width="512" height="512" viewBox="0 0 512 512" xmlns="http://www.w3.org/2000/svg">
  <rect width="512" height="512" fill="#ffffff"/>
  
  <!-- PixelLogo design scaled to 512x512 -->
  <g transform="translate(128, 128)">
    <!-- Grid 5x4 with 51.2px squares -->
    
    <!-- Row 1 -->
    <rect x="51.2" y="0" width="51.2" height="51.2" fill="#dc2626"/>
    <rect x="102.4" y="0" width="51.2" height="51.2" fill="#dc2626"/>
    <rect x="153.6" y="0" width="51.2" height="51.2" fill="#dc2626"/>
    
    <!-- Row 2 -->
    <rect x="0" y="51.2" width="51.2" height="51.2" fill="#16a34a"/>
    <rect x="51.2" y="51.2" width="51.2" height="51.2" fill="#1f2937"/>
    <rect x="102.4" y="51.2" width="51.2" height="51.2" fill="#ffffff" stroke="#e5e7eb" stroke-width="2"/>
    <rect x="153.6" y="51.2" width="51.2" height="51.2" fill="#1f2937"/>
    <rect x="204.8" y="51.2" width="51.2" height="51.2" fill="#2563eb"/>
    
    <!-- Row 3 -->
    <rect x="0" y="102.4" width="51.2" height="51.2" fill="#16a34a"/>
    <rect x="51.2" y="102.4" width="51.2" height="51.2" fill="#1f2937"/>
    <rect x="102.4" y="102.4" width="51.2" height="51.2" fill="#ffffff" stroke="#e5e7eb" stroke-width="2"/>
    <rect x="153.6" y="102.4" width="51.2" height="51.2" fill="#1f2937"/>
    <rect x="204.8" y="102.4" width="51.2" height="51.2" fill="#2563eb"/>
    
    <!-- Row 4 -->
    <rect x="51.2" y="153.6" width="51.2" height="51.2" fill="#dc2626"/>
    <rect x="102.4" y="153.6" width="51.2" height="51.2" fill="#dc2626"/>
    <rect x="153.6" y="153.6" width="51.2" height="51.2" fill="#dc2626"/>
  </g>
</svg>